<?xml version="1.0" encoding="utf-8"?>
<!-- Generator: Adobe Illustrator 24.0.1, SVG Export Plug-In . SVG Version: 6.00 Build 0)  -->
<svg version="1.1" id="Ebene_1" xmlns="http://www.w3.org/2000/svg" xmlns:xlink="http://www.w3.org/1999/xlink" x="0px" y="0px"
	 viewBox="0 0 1085.6 352.1" style="enable-background:new 0 0 1085.6 352.1;" xml:space="preserve">
<style type="text/css">
	.st0{fill:#B0BECC;}
</style>
<g transform="translate(0.000000,640.000000) scale(0.100000,-0.100000)">
	<path class="st0" d="M822.9,4737.8c-44-22-67-55-83-117c-7-27-13-52-15-54c-1-2-12,8-24,23c-17,22-27,26-48,21c-31-7-71-49-71-75
		c0-45-8-49-80-43c-63,5-68,4-75-16c-4-12-4-39-1-59c7-44,3-51-48-77c-81-41-100-110-73-266c18-98,78-237,128-294c29-33,35-36,70-30
		c31,5,44,2,65-14c15-12,35-21,45-21c9,0,41-22,71-48c60-55,94-76,108-67c6,3,10,1,10-4c0-6-4-11-10-11c-5,0-10-10-10-22
		c0-23-1-23-134-20l-135,3l-3,37c-3,33-6,37-34,40c-18,2-39-4-53-15c-20-17-22-28-28-201c-4-119-10-185-17-187c-6-2-180-8-386-14
		c-679-20-694-26-80-31c311-3,580-3,599-1l34,4l-23,17c-32,24-20,47,27,54c64,10,263-8,274-25c6-10,3-17-11-23c-40-18-14-34,68-40
		c47-4,57,5,54,45c-2,30,3,33,109,45c70,8,170-12,162-33c-3-7-10-12-17-11c-20,4-57-14-53-25c5-16,33-19,193-17c55,0,108-2,117-6
		c9-3,23-2,32,4c26,14-63,36-113,27c-30-5-41-3-45,9c-14,36,17,40,204,29c169-11,209-19,209-44c0-12-53-11-86,1c-36,14-44,3-15-21
		c18-15,38-19,75-18c28,1,82-6,121-15c44-10,71-12,73-6c2,5,12,10,23,10c10,0,19,5,19,10c0,6-20,10-45,10c-41,0-45,2-45,25
		c0,33,31,45,118,45c69-1,308-33,319-43c3-4,3-12,0-20c-4-11-22-13-81-9c-53,3-76,1-76-7c0-6,3-11,8-11c101-6,195-15,247-22
		c17-3,20,4,23,40l3,42h42c87-1,384-20,400-26c10-3,17-17,17-30c0-21-5-24-35-24c-34,0-46-12-25-25c16-10,290-16,290-7
		c0,12-46,32-71,32c-15,0-20,6-17,23c4,29,43,33,127,14c33-8,61-10,61-6c0,5,83,9,185,9h185v-27c0-40,14-58,36-48
		c21,9,115,16,187,15c27-1,47,4,47,9c0,7-29,11-76,11c-66,0-75,2-72,18c4,22,132,40,294,41c118,1,140-7,132-46c-3-15-11-17-46-15
		c-26,2-42-1-42-7s9-11,19-11c11,0,21-5,23-11c2-7,23-6,68,2c36,7,90,12,119,11c35-1,64,4,78,13c37,25,27,32-32,22
		c-61-11-77-5-52,21c15,14,44,17,197,20c132,3,184,1,195-8c25-20,7-30-58-31c-54-1-129-14-102-18c30-5,351-8,358-4c4,2-3,13-15,23
		c-15,12-27,15-34,9c-8-6-14-4-18,7c-4,9-5,18-3,20c10,10,127,16,201,9c79-6,86-9,81-26c-4-10-3-28,0-40c6-19,13-21,71-17
		c70,4,88,13,61,32c-21,16-22,32-1,40c20,8,272,8,302,0c28-8,29-40,2-49c-11-3-20-11-20-17c0-5,7-7,17-4c9,4,31,2,49-4
		c46-16,97-1,104,31l6,24l179,6l180,6l127-55c71-31,127-57,125-58c-6-6-324-35-602-54c-652-44-748-52-960-71c-223-21-361-40-410-59
		c-63-24-6-47,260-105c260-56,324-76,332-101c10-29-167-66-407-85c-167-13-1171-6-1465,10c-332,19-396,21-335,11
		c192-30,853-60,1344-60c532,0,798,22,887,72c109,61,21,109-345,188c-105,22-194,40-198,40s-8,4-8,9c0,28,538,78,1240,116
		c336,18,398,23,545,41c168,21,250,27,400,28c94,1,146,7,190,20c47,14,116,20,310,27c138,4,264,11,280,15c17,4,62,28,100,54
		c66,44,77,48,190,65c123,19,184,36,104,29c-158-13-171-13-152,2c10,7,25,14,33,14c32,0,59,30,62,67c4,44,37,68,111,78
		c39,6,47,5,47-9s16-16,113-16c130,0,144-5,130-46l-10-29l-114-3l-114-3l3-65c4-62,5-65,26-60c59,15,136,18,150,7c21-18,8-41-23-41
		s-59-16-48-26c4-5,24-8,45-7c181,5,226,9,230,21c2,8-8,12-32,12c-29,0-36,4-36,20c0,34,40,40,245,40h194l3-37c2-32,6-37,23-35
		c43,7,142,14,187,13c25-1,49,3,53,9s-20,10-69,10c-76,0-91,6-76,29c10,17,183,33,318,29l97-3l3-32c3-31,3-31-37-26
		c-46,6-54-6-15-24c19-9,40-9,82-1c31,6,84,12,117,12c66,2,95,11,95,31c0,10-10,10-46,3c-31-7-49-7-56,0c-30,30,36,42,241,43
		c96,0,147-3,156-11c25-21,6-30-63-31c-56,0-130-15-97-19c60-7,355-5,355,3c0,18-34,36-47,25c-9-7-15-6-19,6c-4,9-4,19-1,22
		c12,12,138,18,205,10c68-9,72-11,72-35c0-47,12-54,80-48c73,6,82,13,52,35c-43,33-11,42,142,42c78,0,151-3,164-6c28-8,29-40,2-49
		c-47-15-17-23,89-26c39,0,66,14,56,31c-2,3-11,88-20,190c-19,217-24,230-90,230h-45v-40v-40h-145c-135,0-145,1-145,19
		c0,10-7,24-15,31c-22,18-19,23,20,44c27,15,38,17,47,8c8-8,21-3,49,23c21,18,55,38,76,44s45,21,55,33c15,20,20,21,37,11
		c31-19,42-16,89,25c36,31,44,45,49,82c5,50,26,101,57,143c18,24,21,43,21,117c0,83-2,90-27,117c-16,16-28,39-28,51
		c0,27-33,62-60,62c-16,0-20,7-20,36c0,52-57,108-103,102c-17-3-40-8-49-13c-15-6-18-2-18,24c0,59-90,112-129,77c-10-9-21-16-25-16
		s-18,24-30,53c-39,85-86,117-176,117s-190-63-190-120c0-25-5-29-39-35c-33-5-41-12-56-45c-10-22-36-55-58-75c-39-35-40-37-34-91
		l6-55l-47,6c-68,8-93-8-117-79c-18-55-23-60-62-73c-114-38-127-168-29-288c25-30,33-48,29-67c-9-46,51-138,91-138c12-1,44-9,73-19
		c49-16,51-19,35-34c-15-16-15-17,1-17c18,0,21-8,11-34c-5-14-27-16-138-16c-72,0-162,3-199,7c-63,6-68,8-74,32c-3,17-17,32-38,42
		c-30,14-33,14-44-3c-6-10-9-29-5-42c5-22,3-23-72-29c-118-10-230-8-259,5l-25,11v162v162l45,13c54,15,56,26,25,144
		c-38,150-145,316-250,389c-51,35-70,40-260,77c-377,74-605,110-691,110h-57l-67-72c-145-156-264-348-309-495c-6-20-4-23,21-23
		c16,0,37-6,47-13c16-12,16-29,9-230l-8-218l-100-34c-55-18-103-32-106-29c-3,2-9,135-13,296c-3,161-9,317-13,346c-6,51-5,52,21,52
		c35,0,41,20,26,88c-21,96-58,161-140,243c-90,90-143,113-256,113c-58-1-79-6-124-30c-62-33-132-113-173-198c-35-72-38-166-6-188
		c21-14,21-14,9-263c-6-138-10-331-9-429l3-179l-45-12c-25-6-74-29-110-51c-117-73-146-78-264-44c-92,26-101,26-229-15
		c-60-19-110-34-112-32c-1,1-9,76-18,166c-18,186-24,200-87,199c-42,0-56-20-44-58c6-19,2-20-137-20l-143,1l-22,34l-21,34l41,28
		c45,30,161,83,182,83c7,0,20,11,29,25c16,24,18,25,46,10c40-21,76-19,116,6c30,18,34,26,40,80c4,32,11,59,15,59c5,0,9,9,9,19
		c0,11,9,26,19,33c50,35,71,190,36,272c-25,58-65,107-101,122c-25,11-33,21-37,52c-11,66-75,107-121,77c-27-18-46-13-46,12
		c0,23-38,72-70,88c-42,21-68,19-95-10l-23-26l-7,33c-18,82-63,138-133,169c-102,45-269,0-288-77c-5-19-15-25-46-30
		c-32-6-45-15-66-46c-14-22-40-45-59-53c-30-13-33-18-33-58c0-52-10-62-70-71c-25-4-59-14-76-23c-30-15-33-15-59,5
		c-35,28-83,36-120,22l-30-12l37-13c44-16,84-40,120-73c23-21,30-23,43-12s15,6,15-36c0-27,3-65,6-85c6-35,5-37-29-43
		c-23-4-47-19-66-42c-27-30-31-42-31-95c0-69,23-123,69-161c28-24,29-27,19-72c-8-39-7-51,9-79c17-29,25-33,79-39
		c129-15,133-17,140-55c3-18,4-36,1-39c-7-8-275-6-348,2c-52,6-57,9-62,33c-4,19-16,31-41,41l-36,14l1,180c1,100,4,192,8,205
		c4,16,18,28,39,35c17,6,31,16,30,21c-1,6-102,98-224,206l-222,196l-333,13c-252,10-346,11-387,2c-55-11-133-55-167-92
		c-26-29-32-25-39,25c-7,41-10,45-36,45c-33,0-160-38-160-48c0-4,9-63,20-131l20-124l-27-34c-79-99-113-146-113-153c0-5,20-12,45-16
		c42-6,45-8,46-38c0-17,6-99,12-182l12-152l-44-6c-57-8-120-8-160,0l-32,7l2,171l2,171l-29,17c-16,10-33,19-39,21c-5,2-1,20,8,40
		c15,32,16,41,5,65c-25,53-120,78-197,51c-23-8-39-25-58-63c-14-28-36-65-49-82c-33-42-32-97,1-130c14-14,25-37,25-51s9-40,19-57
		c11-17,22-58,26-90l8-59l-123,6c-68,4-143,7-167,7c-42,0-43,1-43,34c0,39-24,66-42,48c-7-7-20-12-30-12c-13,0-18-8-18-30
		c0-17-6-32-12-34c-7-3-97-7-200-10l-188-5v37v38l64,17c35,9,77,17,94,17c60,0,76,54,47,155l-16,53l40,54c85,112,65,221-47,251
		c-38,10-43,15-53,52c-25,93-74,133-149,121l-39-6l6,50c6,49,5,52-35,89c-22,21-50,58-62,81c-14,28-32,46-55,56c-24,10-36,22-40,42
		c-10,46-19,56-75,85C947.9,4760.8,874.9,4764.8,822.9,4737.8z M1091.9,4005.8c0-18-23-75-36-89c-6-7-33,32-34,48c0,19,39,61,57,61
		C1085.9,4025.8,1091.9,4016.8,1091.9,4005.8z M9917.9,3936.8c9-12,7-21-9-42l-20-28l-24,36c-17,25-23,44-18,60c6,24,6,25,33,7
		C9894.9,3959.8,9911.9,3945.8,9917.9,3936.8z M1011.9,3826.8c0-77-17-114-39-87c-7,9-19,45-25,80l-13,64l31,9c17,6,34,8,39,6
		C1008.9,3896.8,1011.9,3863.8,1011.9,3826.8z M1149.9,3832.8c18-19,52-85,52-101s-37-36-66-36h-34v64
		C1101.9,3857.8,1111.9,3873.8,1149.9,3832.8z M10009.9,3840.8c3-2-1-24-7-49s-11-56-11-70c0-28-6-31-30-16c-10,6-16,32-18,81l-4,72
		l33-7C9990.9,3848.8,10007.9,3843.8,10009.9,3840.8z M5000.9,3762.8c-1-29-4-65-8-80c-5-26-8-27-25-14c-25,18-26,95-2,132
		C4989.9,3836.8,5001.9,3823.8,5000.9,3762.8z M9843.9,3724.8c3-60,2-64-19-67c-23-3-83,32-83,49c0,5,17,33,37,63c33,50,38,54,49,37
		C9834.9,3796.8,9841.9,3759.8,9843.9,3724.8z M817.9,3781.8c28-28,34-42,34-75c0-38-2-41-19-31c-28,15-91,91-91,110
		C741.9,3826.8,773.9,3825.8,817.9,3781.8z M679.9,3725.8c4-12-67,17-90,38c-10,8-18,19-18,24
		C571.9,3798.8,675.9,3739.8,679.9,3725.8z M4839.9,3768.8c5-10,12-44,16-75c5-48,3-59-11-67c-22-12-93,22-93,44c0,17,61,115,72,115
		C4827.9,3785.8,4834.9,3777.8,4839.9,3768.8z M10221.9,3760.8c10-12,8-21-8-47c-28-45-81-83-95-69c-19,19,10,89,46,111
		C10202.9,3779.8,10205.9,3779.8,10221.9,3760.8z M10411.9,3746.8c0-14-29-34-68-48c-49-16-55-7-8,12c20,9,39,22,43,30
		C10384.9,3756.8,10411.9,3761.8,10411.9,3746.8z M5225.9,3719.8c8-21-17-66-54-98c-38-31-47-32-55-7
		C5097.9,3673.8,5203.9,3776.8,5225.9,3719.8z M5399.9,3696.8c-6-11-28-24-47-31c-20-6-43-14-51-17c-13-5-13-4-1,10
		c7,10,19,17,27,17c7,0,25,11,41,24C5399.9,3726.8,5417.9,3724.8,5399.9,3696.8z M1291.9,3656.8c14-27,14-27-20-41
		c-25-10-30-18-30-45v-32l-67-6c-119-12-183-9-189,8c-10,26,16,75,40,76c11,0,59,13,106,29
		C1235.9,3679.8,1276.9,3682.8,1291.9,3656.8z M9731.9,3640.8c13-14,35-25,49-25s58-7,96-16c75-18,105-40,105-80c0-23-3-24-67-24
		c-38,0-98,3-135,7l-68,6v33c0,32-2,34-35,34c-43,0-47,23-10,63C9698.9,3671.8,9702.9,3671.8,9731.9,3640.8z M4790.9,3585.8
		c17,0,48-6,68-14c21-8,51-17,67-21c28-6,55-30,56-48c0-4-18-4-40-1c-32,5-41,3-46-11c-4-10-1-21,7-26c17-10-60-12-138-3
		c-52,7-53,8-53,39c0,27-5,35-30,45c-35,15-37,23-10,50c18,18,22,18,54,5C4745.9,3592.8,4774.9,3585.8,4790.9,3585.8z M799.9,3398.8
		l3-33h-149c-147,0-150,0-156,23c-12,46-14,46,147,44l152-2L799.9,3398.8z M1205.9,3429.8c10-4,16-18,16-35v-29h-135
		c-74,0-135,2-135,4c0,3,4,16,10,30c9,24,13,25,107,29c54,1,103,4,110,5C1184.9,3434.8,1196.9,3432.8,1205.9,3429.8z M1696.9,3416.8
		c31-6,41-26,26-50c-8-12-44-14-198-12c-204,2-226,8-204,50c11,20,18,21,179,20C1591.9,3423.8,1679.9,3420.8,1696.9,3416.8z
		 M9636.9,3385.8c15-16,15-22,5-35c-10-12-44-15-195-15c-101,0-190,3-199,6s-16,17-16,29c0,31,8,32,216,34
		C9606.9,3405.8,9619.9,3404.8,9636.9,3385.8z M10009.9,3377.8c30-38,18-42-128-42h-140v35v36l128-7
		C9967.9,3394.8,9999.9,3389.8,10009.9,3377.8z M10397.9,3395.8h114v-30v-30h-165h-165v29c0,33,21,42,74,35
		C10271.9,3397.8,10335.9,3395.8,10397.9,3395.8z M4636.9,3349.8c9-9,15-24,13-33c-3-14-27-16-208-16h-205l-3,27c-4,33,2,34,225,36
		C4595.9,3365.8,4622.9,3363.8,4636.9,3349.8z M4999.9,3349.8c16-3,22-11,22-29v-26l-137,3c-124,3-138,5-141,21c-9,44,1,47,120,41
		C4925.9,3356.8,4986.9,3352.8,4999.9,3349.8z M5387.9,3355.8h124v-30v-30h-166h-166l6,23c3,12,6,25,6,29c0,8,40,16,58,12
		C5257.9,3357.8,5319.9,3355.8,5387.9,3355.8z"/>
</g>
</svg>
